<svg width="0" height="0" class="hidden">
  <symbol xmlns="http://www.w3.org/2000/svg" viewBox="0 0 58.137 58.137" id="pear">
    <path d="M28.782 8.906a1 1 0 01-.982-.817c-.556-2.996-1.901-5.427-3.428-6.194a1 1 0 11.897-1.787c3.156 1.585 4.24 6.23 4.497 7.617a1.001 1.001 0 01-.984 1.181z" fill="#659c35"></path>
    <path d="M28.714 11.583c-.928 0-1.824-.331-2.495-1.002a.999.999 0 111.414-1.414c.302.302.728.449 1.217.416.536-.038 1.061-.289 1.479-.707a.999.999 0 111.414 1.414c-.857.857-1.964 1.293-3.029 1.293z"></path>
    <path d="M29.102 5.608c2.238-.025 4.442 1.173 5.547 3.264.942 1.784 1.396 3.944 1.993 5.855.843 2.699 1.457 5.475 2.316 8.162.889 2.782 2.515 5.392 3.904 7.946 1.205 2.217 2.724 4.439 3.503 6.848 1.013 3.134.847 6.606-.272 9.69-2.067 5.7-7.323 9.457-13.195 10.457a21.961 21.961 0 01-3.796.305h-.066a22.06 22.06 0 01-3.796-.305c-5.871-1-11.127-4.756-13.195-10.457-1.119-3.085-1.285-6.556-.272-9.69.779-2.409 2.297-4.63 3.503-6.848 1.389-2.555 3.015-5.164 3.904-7.946.859-2.688 1.473-5.464 2.316-8.162.597-1.912 1.051-4.072 1.993-5.855 1.105-2.091 3.309-3.29 5.547-3.264" fill="#d7cc56"></path>
    <path d="M23.967 52.588a.957.957 0 01-.23-.027c-3.006-.708-5.405-2.65-6.583-5.331a1 1 0 011.831-.805c.922 2.1 2.821 3.626 5.209 4.189a.999.999 0 01.744 1.202.997.997 0 01-.971.772zm-6.702-10.28l-.082-.003a1 1 0 01-.916-1.077c.084-1.041.26-2.097.523-3.141a1.001 1.001 0 011.94.49 17.18 17.18 0 00-.47 2.812.998.998 0 01-.995.919z" fill="#e3e82a"></path>
  </symbol>
  <symbol xmlns="http://www.w3.org/2000/svg" viewBox="0 0 55 55" id="lemon">
    <path d="M55 31.005H13c0 11.598 9.402 21 21 21s21-9.403 21-21z" fill="#f4c44e"></path>
    <path d="M51 31.005H17c0 9.389 7.611 17 17 17s17-7.612 17-17z" fill="#f9ea80"></path>
    <path fill="#f9da49" d="M33 31.005h2v17h-2z"></path>
    <path fill="#f9da49" d="M34.707 30.297l12 12-1.414 1.415-12-12z"></path>
    <path fill="#f9da49" d="M33.293 30.297l1.414 1.414-12 12-1.414-1.414z"></path>
    <path d="M47.983 11.284l.397-.397a4.011 4.011 0 000-5.657 4.011 4.011 0 00-5.657 0l-.24.24C33.392-.662 19.376 1.707 9.489 11.594S-2.767 35.498 3.365 44.589l-.24.24c-1.556 1.556-1.556 4.101 0 5.657s4.101 1.556 5.657 0l.397-.397c5.548 3.31 12.717 3.647 19.639 1.245C19.731 49.023 13 40.811 13 31.005h36.202c2.433-6.948 2.104-14.151-1.219-19.721zm-15.098-2.26c-.435 1.205-1.612 1.551-2.755 1.293.588.133-.089.004-.21-.007a6.044 6.044 0 00-.465-.029h-.152l-.094.007c-.167.018-.333.039-.499.064-1.159.175-2.283-.584-2.485-1.758-.196-1.137.598-2.31 1.758-2.485 1.244-.188 2.392-.115 3.609.16 1.147.259 1.654 1.755 1.293 2.755z" fill="#f9d70b"></path>
  </symbol>
  <symbol xmlns="http://www.w3.org/2000/svg" viewBox="0 0 57.614 57.614" id="cherry">
    <path d="M2.807 37.614c0-7.738 5.367-14 12-14h2c6.633 0 12 6.262 12 14 0 7.18-5.82 13-13 13s-13-5.821-13-13z" fill="#d13834"></path>
    <path d="M13.764 47.386c-.072 0-.146-.008-.219-.024-3.556-.796-6.448-3.395-7.548-6.784a1 1 0 011.903-.617c.869 2.678 3.257 4.817 6.082 5.449a1 1 0 01-.218 1.976zM6.735 36.212a1 1 0 01-.982-1.198 11.68 11.68 0 011.476-3.785 1.002 1.002 0 011.708 1.042 9.668 9.668 0 00-1.222 3.139 1.002 1.002 0 01-.98.802zm22.072 8.402c0-7.738 5.367-14 12-14h2c6.633 0 12 6.262 12 14 0 7.18-5.82 13-13 13s-13-5.821-13-13zm-5-11c-3.309 0-6-2.691-6-6a1 1 0 012 0c0 2.206 1.794 4 4 4a1 1 0 010 2z" fill="#ed3f32"></path>
    <path d="M47.807 40.614c-3.309 0-6-2.691-6-6a1 1 0 012 0c0 2.206 1.794 4 4 4a1 1 0 010 2z" fill="#ed7161"></path>
    <path d="M45.806 36.614a1 1 0 01-.873-1.486c4.228-7.61 3.538-14.017-2.958-24.461-1.583 11.013-11.42 19.919-19.596 19.919a1 1 0 010-2c7.853 0 17.816-9.875 17.816-20.972a1 1 0 011.832-.555c7.181 10.772 10.245 18.977 4.654 29.041a1.002 1.002 0 01-.875.514z" fill="#4c312c"></path>
    <path d="M40.807 7.092c4.012 2.941 10.148 1.38 13.089-2.632-4.012-2.942-10.148-1.38-13.089 2.632z" fill="#88c057"></path>
    <path d="M29.807.11c.757 4.917 6.2 8.151 11.117 7.394C40.166 2.587 34.723-.647 29.807.11z" fill="#659c35"></path>
    <path d="M39.623 54.731c-.072 0-.146-.008-.219-.024-3.556-.796-6.448-3.396-7.548-6.785a1 1 0 011.903-.617c.869 2.678 3.257 4.817 6.082 5.45a1.001 1.001 0 01-.218 1.976z" fill="#ed7161"></path>
  </symbol>
  <symbol xmlns="http://www.w3.org/2000/svg" viewBox="0 0 57.06 57.06" id="pineapple">
    <path d="M28.758 19.06c16.058 0 15.944 8.507 15.944 19s-7.139 19-15.944 19h-.456c-8.806 0-15.944-8.507-15.944-19s-.114-19 15.944-19" fill="#d6a550"></path>
    <path d="M32.51 13.389a12.153 12.153 0 011.728-1.77c.791-4.56 6.234-8.278 10.119-9.28 0 0-3.318-2.76-7.433-2.284-4.264.493-6.688 2.584-8.055 5.056 2.881 2.25 3.56 5.793 3.641 8.278z" fill="#88c057"></path>
    <path d="M23.255 19.411c1.476-.228 3.145-.351 5.048-.351h.056s.167-5.042-5-6c-5.167-.958-6 2-6 2 4.466 1.071 5.604 3.261 5.896 4.351zm11.357.142c.819-1.552 4.68-5.279 9.746-6.493 0 0-1.833-3.958-7-3-5.167.958-7.999 9-7.999 9l.069.011c1.971.031 3.689.196 5.184.482z" fill="#659c35"></path>
    <path d="M25.988 14.156c2.26 1.652 2.367 4.399 2.37 4.838.335.016.679.014 1.025 0 .145-.395 1.021-2.682 2.565-4.859.059-.115.119-.204.181-.242.074-.101.152-.201.228-.301.052-.067.1-.136.154-.203-.119-3.626-1.506-9.507-9.153-10.329-3.875-.417-7 2-7 2 3.951.947 9.625 4.667 9.63 9.096z" fill="#a4e869"></path>
    <path d="M21.358 44.646l-3.707 3.707 1.414 1.414 2.293-2.293 2.293 2.293 1.414-1.414zm3.293 8.707l1.414 1.414 2.293-2.293 2.293 2.293 1.414-1.414-3.707-3.707zm7-5l1.414 1.414 2.293-2.293 2.293 2.293 1.414-1.414-3.707-3.707zm-12.586-6.586l2.293-2.293 2.293 2.293 1.414-1.414-3.707-3.707-3.707 3.707zm9.293 1.707l2.293 2.293 1.414-1.414-3.707-3.707-3.707 3.707 1.414 1.414zm-13.86-2.828l-1.707 1.707 1.414 1.414.293-.293 2.293 2.293 1.414-1.414zm20.86-1.172l2.293 2.293 1.414-1.414-3.707-3.707-3.707 3.707 1.414 1.414zm-17.707-7.121l1.414 1.414 2.293-2.293 2.293 2.293 1.414-1.414-3.707-3.707zm10.707 3.121l2.293 2.293 1.414-1.414-3.707-3.707-3.707 3.707 1.414 1.414zm7-6.828l-3.707 3.707 1.414 1.414 2.293-2.293 2.293 2.293 1.414-1.414zm-14-5.172l2.293 2.293 1.414-1.414-3.707-3.707-3.707 3.707 1.414 1.414zm4.707 6.293l2.293-2.293 2.293 2.293 1.414-1.414-3.707-3.707-3.707 3.707zm9.293-6.293l2.293 2.293 1.414-1.414-3.707-3.707-3.707 3.707 1.414 1.414zm7.854 2.064l-.699-1.048-3.862 3.863 1.414 1.414 2.138-2.137 1.323 1.985.732-.488c-.22-1.294-.553-2.496-1.046-3.589zM42.16 40.843l-3.51 3.51 1.414 1.414 2.49-2.49 1.355.678c.18-.656.336-1.323.456-2.008l-2.205-1.104zM14.23 24.774a11.63 11.63 0 00-.93 2.228l.765.765.293-.293 2.293 2.293 1.414-1.414-3.707-3.707-.128.128zm30.459 10.203l-2.331-2.331-3.707 3.707 1.414 1.414 2.293-2.293 1.293 1.293 1.046-1.046-.008-.744zm-32.311-.351c-.008.474-.014.952-.017 1.437l.704.704 1.293-1.293 2.293 2.293 1.414-1.414-3.707-3.707-1.98 1.98z" fill="#f4c44e"></path>
  </symbol>
  <symbol xmlns="http://www.w3.org/2000/svg" viewBox="0 0 49.829 49.829" id="paprica">
    <path d="M43.302 7.914a1 1 0 01-.72-1.693c1.038-1.08 1.59-2.29 1.407-3.082-.118-.509-.576-.912-1.362-1.199a1 1 0 01.687-1.879c1.819.665 2.431 1.796 2.623 2.627.342 1.478-.374 3.316-1.914 4.92a1.001 1.001 0 01-.721.306z" fill="#659c35"></path>
    <path d="M32.238 15.303c-.137.467-.272.963-.4 1.526-3.5 15.417-16.372 23.55-30.887 31.589-.664.368-.755 1.503-.103 1.405 9.352-1.406 33.762.965 45.701-27.013 0 0 6.163-12.856-1.712-14.981.001 0-10.887-5.115-12.599 7.474z" fill="#d13834"></path>
    <path d="M48.974 17.608c.892-4.035.86-8.868-3.839-10.136 0 0-10.635-4.987-13.19 6.315 2.49-.189 5.827-.69 6.761-2.029 0 0 2.21 2.21 1.072 5.358 0 0 4.688-.536 4.286-4.286 0 0 2.88 2.478 2.143 6.429-.001 0 1.389-.421 2.767-1.651z" fill="#88c057"></path>
    <path d="M14.928 45.996a1.001 1.001 0 01-.307-1.952c21.656-6.978 24.045-21.793 24.067-21.941a.991.991 0 011.133-.846 1 1 0 01.846 1.133c-.096.658-2.602 16.201-25.433 23.559a1.053 1.053 0 01-.306.047z" fill="#f75b57"></path>
  </symbol>
  <symbol xmlns="http://www.w3.org/2000/svg" viewBox="0 0 57 57" id="strawberry">
    <path fill="#659c35" d="M29.841 9.386L26.905 10l-2.867-8.545 5-1.455z"></path>
    <path d="M36.143 8.465c1.076-.979 1.893-2.161 2.309-3.554-5.457-2.031-7.156.602-7.156.602-.079-1.069-.888-1.522-1.925-1.628l.471 5.5-2.937.615-.001-.002-1.756-5.234c-.524.264-.877.538-.893.749 0 0-1.7-2.633-7.156-.602.429 1.432 1.266 2.654 2.389 3.647-4.387.621-8.419 2.131-10.449 5.844 10.277 3.075 13.336-1.882 13.336-1.882.623 6.736 5.841 8.725 6.63 9 .789-.275 6.007-2.264 6.63-9 0 0 1.127 4.957 11.405 1.882-2.265-3.739-6.497-5.32-10.897-5.937z" fill="#88c057"></path>
    <path d="M45.326 14.923c-.015-.018-.027-.038-.042-.056-8.647 2.023-9.65-2.347-9.65-2.347-.623 6.736-5.841 8.725-6.63 9-.789-.275-6.007-2.264-6.63-9 0 0-2.555 4.06-10.726 2.501l-.055.052.073.015c-2.426 2.44-3.705 6.228-3.705 11.964C7.962 39.874 20.848 57 28.5 57c7.652 0 20.538-17.126 20.538-29.949 0-5.843-1.328-9.664-3.842-12.099.042-.008.088-.02.13-.029z" fill="#e22f37"></path>
    <path d="M17.295 20.672c-.122-.391-.675-.391-.796 0 0 0-1.516 5.294-1.516 5.805s.199.992.561 1.354c.361.362.842.561 1.353.561s.992-.199 1.353-.561c.362-.362.561-.842.561-1.354s-1.516-5.805-1.516-5.805zm11.828 4c-.122-.391-.675-.391-.796 0 0 0-1.516 5.294-1.516 5.805s.199.992.561 1.354c.361.362.842.561 1.353.561s.992-.199 1.353-.561c.362-.362.561-.842.561-1.354s-1.516-5.805-1.516-5.805zm11.172-4.012c-.122-.391-.675-.391-.796 0 0 0-1.516 5.294-1.516 5.805s.199.992.561 1.354c.361.362.842.561 1.353.561s.992-.199 1.353-.561c.362-.362.561-.842.561-1.354s-1.516-5.805-1.516-5.805zM22.123 33.685c-.122-.391-.675-.391-.796 0 0 0-1.516 5.294-1.516 5.805s.199.992.561 1.354c.361.362.842.561 1.353.561s.992-.199 1.353-.561c.362-.362.561-.842.561-1.354s-1.516-5.805-1.516-5.805zm7 8.975c-.122-.391-.675-.391-.796 0 0 0-1.516 5.294-1.516 5.805s.199.992.561 1.354c.361.362.842.561 1.353.561s.992-.199 1.353-.561c.362-.362.561-.842.561-1.354s-1.516-5.805-1.516-5.805zm7-8.988c-.122-.391-.675-.391-.796 0 0 0-1.516 5.294-1.516 5.805s.199.992.561 1.354c.361.362.842.561 1.353.561s.992-.199 1.353-.561c.362-.362.561-.842.561-1.354s-1.516-5.805-1.516-5.805z" fill="#994530"></path>
  </symbol>
  <symbol xmlns="http://www.w3.org/2000/svg" viewBox="0 0 54.354 54.354" id="banana">
    <path d="M51.169 8.959c-.154-.291-.306-.583-.474-.87A21.363 21.363 0 0048.59 5.15c2.132 8.869-1.562 18.182-7.06 24.259-11.103 12.273-21.646 16.44-29.053 17.148a35.397 35.397 0 01-5.527 1.749c-.088.02-.17.026-.255.04 1.001.153 2.221.27 3.652.27 7.072 0 19.057-2.821 32.666-17.865 5.013-5.542 8.615-13.612 8.156-21.792zM3.728 47.42l-.075.191c.067.026.279.105.618.207a5.494 5.494 0 01-.543-.398z" fill="#f9e280"></path>
    <path d="M48.411 4.925L45.324 0 43.13 1.446l2.623 5.039c.222.7.538 1.441.542 2.115.067 10.542-8.436 21.51-20.674 30.164-5.038 3.563-8.902 6.035-12.955 7.718l-.192.075.002-.001c7.407-.708 17.95-4.876 29.053-17.148 5.497-6.076 9.191-15.387 7.061-24.255-.061-.073-.116-.155-.179-.228z" fill="#e8c52e"></path>
    <path d="M9.634 47.578l.155-.046-.155.046zM51.131 8.89l.037.068c.46 8.18-3.142 16.25-8.156 21.792-13.609 15.045-25.594 17.866-32.666 17.866-1.431 0-2.651-.117-3.652-.27.085-.013.167-.019.255-.04-1.078.248-1.959-.035-2.677-.488a8.846 8.846 0 01-.618-.207l.075-.191c-.893-.733-1.48-1.611-1.85-1.621-.72-.02-1.2 1.478-1.254 2.536 8.653 9.16 21.722 7.076 35.425-.952C51.212 38.499 57.806 21.452 51.131 8.89z" fill="#f9d70b"></path>
    <path d="M47.313 8.272l1.599-.384a1.018 1.018 0 00.584-1.587c-.332-.458-.68-.902-1.045-1.329a1.023 1.023 0 01-.073-.1L45.874.878A1.011 1.011 0 0044.46.571l-.567.374c-.433.285-.58.852-.341 1.312l2.164 4.158a.975.975 0 01.062.149c.109.335.233.677.333 1.017.15.513.68.816 1.202.691z" fill="#b58c30"></path>
  </symbol>
  <symbol xmlns="http://www.w3.org/2000/svg" viewBox="0 0 51.529 51.529" id="orange">
    <path d="M36.486 12.899l-5.089-.419 1.884-4.746c.308-.775.696-1.499 1.139-2.177a23.913 23.913 0 00-9.655-2.027c-13.255 0-24 10.745-24 24s10.745 24 24 24 24-10.745 24-24a23.9 23.9 0 00-5.954-15.813 12.233 12.233 0 01-6.325 1.182z" fill="#ed8f20"></path>
    <circle cx="38.537" cy="18.496" r="2" fill="#ef771d"></circle>
    <circle cx="43.857" cy="29.651" r="2" fill="#ef771d"></circle>
    <circle cx="43.537" cy="23.496" r="2" fill="#ef771d"></circle>
    <circle cx="37.493" cy="27.529" r="2" fill="#ef771d"></circle>
    <circle cx="38.537" cy="34.496" r="2" fill="#ef771d"></circle>
    <circle cx="20.537" cy="10.496" r="2" fill="#ef771d"></circle>
    <circle cx="13.537" cy="13.496" r="2" fill="#ef771d"></circle>
    <path d="M27.765 11.529s4.25.7 5.4 3.6" fill="#ed8f20"></path>
    <path d="M33.165 16.13c-.397 0-.773-.239-.93-.632-.925-2.331-4.599-2.976-4.635-2.982a1 1 0 01.326-1.973c.197.032 4.824.831 6.168 4.218a1 1 0 01-.929 1.369z" fill="#9b6026"></path>
    <path d="M28.365 14.529a9.796 9.796 0 013.787-2.567" fill="#ed8f20"></path>
    <path d="M28.364 15.529a1 1 0 01-.739-1.673 10.811 10.811 0 014.176-2.831 1.002 1.002 0 011.288.584 1.001 1.001 0 01-.585 1.288 8.796 8.796 0 00-3.4 2.304.995.995 0 01-.74.328z" fill="#9b6026"></path>
    <path d="M50.765.46L45.676.041a12.254 12.254 0 00-12.395 7.693l-1.884 4.746 5.089.419a12.255 12.255 0 0012.395-7.693L50.765.46z" fill="#659c35"></path>
    <path d="M31.958 11.068l-.561 1.413.718.059c6.258-6.111 13.059-8.117 13.803-8.164l.035-.559.413.413.158-.593-.444-.425c-.598-.132-7.583 1.797-14.122 7.856z" fill="#88c057"></path>
  </symbol>
  <symbol xmlns="http://www.w3.org/2000/svg" viewBox="0 0 51.679 51.679" id="tomato">
    <path d="M40.47 8.458c-2.562-1.642-7.374-3.93-11.997-1.816a.67.67 0 01-.952-.607V1.786C27.522.804 26.855 0 26.04 0h-2.223c-.815 0-1.482.804-1.482 1.786v4.501a.67.67 0 01-.802.661c-1.877-.387-6.751-.989-11.412 1.795-.638.381-.268 1.381.464 1.247 2.17-.397 5.026-.67 6.956.092a.674.674 0 01.124 1.189c-1.371.895-3.9 2.953-5.557 6.737-.282.644.51 1.221 1.053.774 2.117-1.744 5.6-4.107 8.554-3.726a.68.68 0 01.607.68c-.03 1.982-.005 8.716 1.632 11.265a.675.675 0 001.117.035c1.043-1.433 3.304-5.233 3.211-11.167a.677.677 0 01.697-.694c1.49.048 5.008.469 7.798 3.194.457.447 1.214.061 1.134-.573-.219-1.735-1.174-4.359-4.631-6.394-.525-.309-.436-1.095.155-1.24 1.194-.293 3.252-.572 6.644-.46.689.021.97-.873.391-1.244z" fill="#88c057"></path>
    <path d="M41.248 9.99a.698.698 0 00-.314-.12c-.4-.049-.801-.095-1.201-.149-.143-.014-.287-.025-.429-.039-2.914-.048-4.743.206-5.846.474a.674.674 0 00-.175 1.244c3.457 2.035 4.411 4.659 4.63 6.393.08.634-.677 1.02-1.134.573-2.79-2.724-6.308-3.145-7.798-3.194a.676.676 0 00-.697.694c.092 5.934-2.168 9.734-3.211 11.167a.675.675 0 01-1.117-.035c-1.637-2.549-1.662-9.283-1.632-11.265a.681.681 0 00-.607-.68c-2.954-.382-6.437 1.982-8.554 3.726-.543.447-1.335-.13-1.053-.774 1.655-3.779 4.18-5.836 5.552-6.733a.674.674 0 00-.128-1.19 6.461 6.461 0 00-1.203-.324.735.735 0 00-.234-.004 57.35 57.35 0 00-7.119 1.411.718.718 0 00-.278.144C3.597 15.555.393 21.668.393 28.465c0 12.821 11.393 23.214 25.446 23.214s25.446-10.393 25.446-23.214c.001-7.537-3.937-14.235-10.037-18.475z" fill="#d13834"></path>
    <path d="M5.791 34.636a.998.998 0 01-.861-.49A11.328 11.328 0 013.473 30a1 1 0 01.844-1.135.991.991 0 011.135.844 9.457 9.457 0 001.199 3.418 1 1 0 01-.86 1.509zm-1.203-7.958a1 1 0 01-.999-1.069c.094-1.327.366-2.616.811-3.834a1.001 1.001 0 011.879.687 11.997 11.997 0 00-.694 3.285 1 1 0 01-.997.931z" fill="#ed7161"></path>
  </symbol>
  <symbol xmlns="http://www.w3.org/2000/svg" viewBox="0 0 56.538 56.538" id="carrot">
    <path d="M34.685 22.808s12.342-7.316 20.178 3.022c0 0 2.032 2.35.47 4.6-1.537 2.212-4.968 1.742-6.676-.603-1.541-2.115-5.254-4.8-13.972-7.019z" fill="#88c057"></path>
    <path d="M34.685 22.808s7.506-12.152-2.145-19.301c0 0-3.185-2.863-6.062-1.844-2.676.947-2.746 4.678-.284 6.089 2.698 1.547 6.394 5.411 8.491 15.056zm19.919 3.658s.067.086.155.205c.257-.23.506-.478.732-.768 2.084-2.67.414-4.736.414-4.736-6.186-9.306-20.584.807-20.584.807.693.048 1.341.11 1.968.176 4.117-1.502 11.821-2.932 17.315 4.316z" fill="#88c057"></path>
    <path d="M32.541 3.507c7.445 5.514 4.681 14.002 3.028 17.596.003.081.009.154.012.235 0 0 10.275-14.236 1.555-19.836 0 0-2.779-2.377-5.999-.74a5.38 5.38 0 00-1.428 1.056c1.611.594 2.832 1.689 2.832 1.689z" fill="#a4e869"></path>
    <path d="M50.459 6.131c-3.647-2.363-8.276 1.205-8.276 1.205-.768.92-1.465 1.91-2.108 2.927-.638 4.649-3.667 9.674-5.173 11.934-.089.314-.164.589-.216.787 1.745-1.172 6.828-4.343 11.824-5.164 1.24-.822 2.422-1.725 3.451-2.705 5.515-5.251.498-8.984.498-8.984z" fill="#659c35"></path>
    <path d="M34.685 22.808s12.342-7.316 20.178 3.022c0 0 2.032 2.35.47 4.6-1.537 2.212-4.968 1.742-6.676-.603-1.541-2.115-5.254-4.8-13.972-7.019z" fill="#a4e869"></path>
    <path d="M35.376 21.701c-.281.547-.472.857-.472.857s.468-.276 1.272-.643a47.202 47.202 0 00-.8-.214z" fill="#f2681c"></path>
    <path d="M41.809 28.277c.421-1.172.395-2.334.132-3.429-1.879-.789-4.186-1.565-7.037-2.29-.691-3.177-1.556-5.716-2.501-7.762-1.303-.453-2.728-.614-4.17-.096C23.708 16.326 3.81 44.955.089 54.937c-.35.939.387 1.675 1.325 1.325 9.982-3.721 38.769-23.461 40.395-27.985z" fill="#ed8f20"></path>
    <g fill="#dd7017">
      <path d="M8.236 46.857a12.2 12.2 0 01-1.947-1.168 1 1 0 00-1.182 1.612c.718.527 1.481.985 2.267 1.36a1.001 1.001 0 00.862-1.804zm30.925-19.033c-2.046-.78-3.945-2.182-5.642-4.167a1 1 0 10-1.52 1.3c1.917 2.242 4.087 3.836 6.45 4.737a1.002 1.002 0 001.291-.579 1.002 1.002 0 00-.579-1.291zm-16.439-7.876a1 1 0 01.748.854c.179 1.632 1.022 3.747 2.505 4.792a1 1 0 11-1.154 1.634c-2.001-1.411-2.996-3.947-3.284-5.847"></path>
      <path d="M24.821 27.228a.997.997 0 001.394-.24 1 1 0 00-.24-1.394c-1.482-1.046-2.326-3.161-2.505-4.792a1 1 0 00-.748-.854c-.385.457-.779.931-1.185 1.432.288 1.901 1.283 4.437 3.284 5.848zm5.527 11.35c-1.89-.306-4.369-1.302-5.758-3.271a1.001 1.001 0 011.635-1.153c1.045 1.481 3.16 2.326 4.792 2.505a.99.99 0 01.856.782"></path>
      <path d="M31.018 36.659c-1.633-.179-3.748-1.023-4.792-2.505a1 1 0 00-1.635 1.153c1.389 1.969 3.868 2.965 5.758 3.271.519-.383 1.028-.761 1.525-1.136a.991.991 0 00-.856-.783zM14.756 30.41c.399.094.72.424.768.856.112 1.025.635 2.349 1.549 2.995a1 1 0 11-1.154 1.634c-1.328-.937-2.04-2.56-2.299-3.865"></path>
      <path d="M15.92 35.895a.999.999 0 101.154-1.634c-.915-.646-1.437-1.969-1.549-2.995a.992.992 0 00-.768-.856 227.29 227.29 0 00-1.136 1.62c.259 1.305.971 2.928 2.299 3.865zm2.104 11.152c-1.357-.177-3.244-.888-4.285-2.365a1 1 0 011.634-1.154c.646.915 1.969 1.437 2.994 1.549a1 1 0 01.885 1.103c-.003.031-.02.057-.026.087"></path>
      <path d="M18.367 45.078c-1.025-.112-2.349-.635-2.994-1.549a1 1 0 10-1.634 1.154c1.042 1.477 2.928 2.188 4.285 2.365.4-.257.801-.518 1.202-.779.006-.03.023-.056.026-.087a1 1 0 00-.885-1.104z"></path>
    </g>
  </symbol>
  <symbol xmlns="http://www.w3.org/2000/svg" viewBox="0 0 56.673 56.673" id="apple">
    <path d="M31.483 16.213a13.104 13.104 0 01-6.292 0c-10.756-2.66-19.762-1.64-19.658 18.643.053 10.39 9.783 23.862 20.009 21.557a12.76 12.76 0 015.589 0c10.226 2.305 19.956-11.167 20.009-21.557.104-20.282-8.901-21.303-19.657-18.643z" fill="#d13834"></path>
    <path d="M10.533 29.674a1 1 0 01-1-1c0-5.514 4.037-10 9-10a1 1 0 110 2c-3.859 0-7 3.589-7 8a1 1 0 01-1 1z" fill="#f75b57"></path>
    <path d="M28.265 19.999a1 1 0 01-.998-.968c-.135-4.232-1.761-9.545-5.922-11.764a1 1 0 11.942-1.765c4.914 2.62 6.827 8.673 6.979 13.465a.999.999 0 01-.968 1.031l-.033.001z" fill="#4c312c"></path>
    <path d="M28.176 23.592a6.25 6.25 0 01-4.45-1.845.999.999 0 111.414-1.414c.812.812 1.891 1.259 3.036 1.259s2.224-.447 3.035-1.259a.999.999 0 111.414 1.414 6.248 6.248 0 01-4.449 1.845z" fill="#994530"></path>
    <path d="M27.305 13.04l.609-4.086A9.916 9.916 0 0136.26.608L40.345 0l-.609 4.086a9.916 9.916 0 01-8.346 8.346l-4.085.608z" fill="#659c35"></path>
  </symbol>
  <symbol xmlns="http://www.w3.org/2000/svg" viewBox="0 0 56 56" id="onion">
    <path d="M23.8 51.93a.999.999 0 01-.707-1.707l4.2-4.2a.999.999 0 111.414 1.414l-4.2 4.2a.997.997 0 01-.707.293z" fill="#a46f3e"></path>
    <path d="M28 53.33a1 1 0 01-1-1v-5.6a1 1 0 012 0v5.6a1 1 0 01-1 1z" fill="#a46f3e"></path>
    <path d="M32.2 51.93a.997.997 0 01-.707-.293l-4.2-4.2a.999.999 0 111.414-1.414l4.2 4.2a.999.999 0 01-.707 1.707z" fill="#a46f3e"></path>
    <path d="M35.001 49.129a.948.948 0 01-.197-.02l-7-1.4a.999.999 0 11.393-1.961l7 1.4a1 1 0 01-.196 1.981z" fill="#a46f3e"></path>
    <path d="M20.999 49.013a1 1 0 01-.163-1.986l7-1.167a1 1 0 11.329 1.973l-7 1.167a1.183 1.183 0 01-.166.013z" fill="#a46f3e"></path>
    <path d="M46.745 21.529C33.337 14.354 31 2.67 31 2.67h-6S22.663 14.353 9.255 21.529C3.573 24.275 0 28.249 0 32.67c0 7.557 10.431 13.428 24 14.468 3.11.238 4.853.246 8 .067 14.053-.802 24-6.793 24-14.535 0-4.421-3.573-8.395-9.255-11.141z" fill="#962f34"></path>
    <path d="M28.643 47.389C36.548 45.868 44.457 39.478 45 31.755c.188-2.667-.479-5.583-3-8-2.864-2.745-2.658-2.464-4.17-3.976-3.759-3.759-6.367-8.556-7.83-12.713-1.78-5.057-2.22-5.057-4 0-1.463 4.157-4.072 8.954-7.83 12.713-1.512 1.512-1.306 1.23-4.17 3.976-2.521 2.417-3.188 5.333-3 8 .543 7.722 8.452 14.113 16.357 15.634h1.286z" fill="#7c2832"></path>
    <path d="M28.236 47.33c3.263-.812 6.528-6.28 6.752-14.096.077-2.699-.198-5.651-1.238-8.097-1.182-2.779-1.097-2.494-1.721-4.024-.572-1.401-1.065-2.945-1.49-4.547-4.566-17.193-.569-17.193-5.135 0-.425 1.602-.919 3.146-1.49 4.547-.624 1.53-.539 1.245-1.721 4.024-1.041 2.446-1.316 5.398-1.238 8.097.224 7.816 3.489 13.284 6.752 14.096h.529z" fill="#a0444d"></path>
  </symbol>
</svg>